# xmcd
#
# Track frame offsets:
#	150
#	11184
#	23925
#	35424
#	48592
#	62849
#	75537
#	88371
#	99889
#	111755
#	122107
#	135960
#	148250
#	159745
#	172526
#	186455
#
# Disc length: 2686 seconds
#
# Revision: 1
# Processed by: cddbd v1.5.1PL0 Copyright (c) Steve Scherf et al.
# Submitted via: audiograbber 1.83.01
#
DISCID=d70a7c10
DTITLE=Ray Charles - Essentiels 2
DYEAR=1900
DGENRE=Soul
TTITLE0=A Sentimental Blues
TTITLE1=You Never Miss The Water
TTITLE2=Let´s Have A Ball
TTITLE3=Baby Won´t You Please Come Home
TTITLE4=Walkin´´And Talkin
TTITLE5=Blues Before Sunrise
TTITLE6=Don´t Put All Your Dreams In One Basket
TTITLE7=What Have I Done?
TTITLE8=If I Give You My Love
TTITLE9=Sitting On Top Of The World
TTITLE10=Misery In My Heart
TTITLE11=Money Honey
TTITLE12=Back Home
TTITLE13=The Snow Is Falling
TTITLE14=Late In The Evening Blues
TTITLE15=I´m Wondering An Wondering
EXTD=CD 2
EXTT0=
EXTT1=
EXTT2=
EXTT3=
EXTT4=
EXTT5=
EXTT6=
EXTT7=
EXTT8=
EXTT9=
EXTT10=
EXTT11=
EXTT12=
EXTT13=
EXTT14=
EXTT15=
PLAYORDER=
